# xmcd
#
# Track frame offsets:
#	150
#	11246
#	25214
#	41390
#	57402
#	79009
#	95918
#	110099
#	121840
#	139615
#	155912
#	182212
#	198227
#	212478
#	222180
#	236386
#	247947
#	270416
#	283636
#	294927
#
# Disc length: 4131 seconds
#
# Revision: 1
# Processed by: cddbd v1.5.1PL2 Copyright (c) Steve Scherf et al.
# Submitted via: audiograbber 1.83.01
#
DISCID=1f102114
DTITLE=Jens Lisberg - Skýming - Fløga 1
DYEAR=2005
DGENRE=Folk
TTITLE0=Lat okkum fara
TTITLE1=Alt er so myrkt
TTITLE2=Bygdin vakra
TTITLE3=Kvøldarstjørnan
TTITLE4=Farvæl Føroyar
TTITLE5=Ger sum eg
TTITLE6=Langt burtur frá tí heimið
TTITLE7=Kom abbi set teg stabba á
TTITLE8=Við Noregs køldu strendur
TTITLE9=Hoyr vinur mín
TTITLE10=Heimlongsul til Tvøroyri
TTITLE11=Eg sjólívið valdi
TTITLE12=Oyggjarland og sól
TTITLE13=Ólavur Riddararós
TTITLE14=Sól til viðar rann
TTITLE15=Uggi finst ei
TTITLE16=Tú dregur meg sum ein magnetur
TTITLE17=Joehill
TTITLE18=Barnajól
TTITLE19=Vætrajól
EXTD=
EXTT0=
EXTT1=
EXTT2=
EXTT3=
EXTT4=
EXTT5=
EXTT6=
EXTT7=
EXTT8=
EXTT9=
EXTT10=
EXTT11=
EXTT12=
EXTT13=
EXTT14=
EXTT15=
EXTT16=
EXTT17=
EXTT18=
EXTT19=
PLAYORDER=
